# xmcd CD database file generated by Grip 2.91
# 
# Track frame offsets:
#       150
#       15145
#       29462
#       42160
#       56927
#       76952
#       88142
#       100967
#       115980
#       130847
#       144357
#       157115
#       172550
#       185482
#       200525
#       213125
#       226652
#       240357
#       251835
#       264342
#       282957
#       297492
#       311302
#       325535
# 
# Disc length: 4558 seconds
# 
# Revision: 3
# Processed by: cddbd v1.4b41PL1 Copyright (c) Steve Scherf et al.
# Submitted via: Grip 2.91
# 
DISCID=4011cc18
DTITLE=varies - i love the blues
DYEAR=1900
DGENRE=
TTITLE0=mannish boy
TTITLE1=love me like a man
TTITLE2=back door man
TTITLE3=i'm in the mood
TTITLE4=wild streak
TTITLE5=who do you love
TTITLE6=night hunting time
TTITLE7=the healer
TTITLE8=couldn't stand the weather
TTITLE9=tuff enuff
TTITLE10=crawlin' king snake
TTITLE11=need your love so bad
TTITLE12=frankenstein
TTITLE13=heartattack and vine
TTITLE14=i'm your hoochie coochie man
TTITLE15=good morning little schoolgirl
TTITLE16=got my mojo working
TTITLE17=highway
TTITLE18=born under a bad sign
TTITLE19=making whoopie
TTITLE20=boogie my way back home
TTITLE21=walking the blues
TTITLE22=poor man's plea
TTITLE23=albert's shuffle
EXTD=
EXTT0=
EXTT1=
EXTT2=
EXTT3=
EXTT4=
EXTT5=
EXTT6=
EXTT7=
EXTT8=
EXTT9=
EXTT10=
EXTT11=
EXTT12=
EXTT13=
EXTT14=
EXTT15=
EXTT16=
EXTT17=
EXTT18=
EXTT19=
EXTT20=
EXTT21=
EXTT22=
EXTT23=
PLAYORDER=
